<svg xmlns="http://www.w3.org/2000/svg" xmlns:xlink="http://www.w3.org/1999/xlink" width="500" zoomAndPan="magnify" viewBox="0 0 375 449.999984" height="600" preserveAspectRatio="xMidYMid meet" version="1.0"><defs><clipPath id="17f2c9b493"><path d="M 76.070312 401 L 125 401 L 125 449.832031 L 76.070312 449.832031 Z M 76.070312 401 " clip-rule="nonzero"/></clipPath><clipPath id="733c012124"><path d="M 310 401 L 351 401 L 351 449.832031 L 310 449.832031 Z M 310 401 " clip-rule="nonzero"/></clipPath><clipPath id="be585f7413"><path d="M 4.621094 0.117188 L 371.140625 0.117188 L 371.140625 368.226562 L 4.621094 368.226562 Z M 4.621094 0.117188 " clip-rule="nonzero"/></clipPath><clipPath id="6808957100"><path d="M 187 0.117188 L 371.140625 0.117188 L 371.140625 368.226562 L 187 368.226562 Z M 187 0.117188 " clip-rule="nonzero"/></clipPath></defs><rect x="-37.5" width="450" fill="#ffffff" y="-44.999998" height="539.99998" fill-opacity="1"/><rect x="-37.5" width="450" fill="#ffffff" y="-44.999998" height="539.99998" fill-opacity="1"/><rect x="-37.5" width="450" fill="#ffffff" y="-44.999998" height="539.99998" fill-opacity="1"/><path fill="#f41414" d="M 56.78125 433.550781 L 33.578125 401.527344 L 23.738281 401.527344 L 23.738281 449.507812 L 33.65625 449.507812 L 33.65625 416.8125 L 56.859375 449.507812 L 66.699219 449.507812 L 66.699219 401.527344 L 56.78125 401.527344 L 56.78125 433.550781 " fill-opacity="1" fill-rule="nonzero"/><g clip-path="url(#17f2c9b493)"><path fill="#f41414" d="M 100.875 440.726562 C 91.777344 440.726562 87.355469 435.707031 87.355469 425.386719 C 87.355469 415.242188 91.777344 410.308594 100.875 410.308594 C 109.734375 410.308594 114.042969 415.242188 114.042969 425.386719 C 114.042969 435.707031 109.734375 440.726562 100.875 440.726562 Z M 100.875 401.199219 C 84.890625 401.199219 76.789062 409.40625 76.789062 425.621094 C 77.5 441.6875 85.601562 449.832031 100.875 449.832031 C 116.621094 449.832031 124.609375 441.675781 124.609375 425.585938 C 124.609375 409.40625 116.621094 401.199219 100.875 401.199219 " fill-opacity="1" fill-rule="nonzero"/></g><path fill="#f41414" d="M 167.738281 433.550781 L 144.535156 401.527344 L 134.695312 401.527344 L 134.695312 449.507812 L 144.617188 449.507812 L 144.617188 416.8125 L 167.8125 449.507812 L 177.65625 449.507812 L 177.65625 401.527344 L 167.738281 401.527344 L 167.738281 433.550781 " fill-opacity="1" fill-rule="nonzero"/><path fill="#f41414" d="M 187.746094 431.40625 L 205.601562 431.40625 L 205.601562 422.945312 L 187.746094 422.945312 L 187.746094 431.40625 " fill-opacity="1" fill-rule="nonzero"/><path fill="#f41414" d="M 236.210938 435.613281 L 222.417969 401.527344 L 210.410156 401.527344 L 230.542969 449.507812 L 240.867188 449.507812 L 261.90625 401.527344 L 249.972656 401.527344 L 236.210938 435.613281 " fill-opacity="1" fill-rule="nonzero"/><path fill="#f41414" d="M 278.394531 429.910156 L 300.585938 429.910156 L 300.585938 420.574219 L 278.496094 420.574219 L 278.496094 410.574219 L 301.6875 410.574219 L 301.6875 401.527344 L 268.316406 401.527344 L 268.316406 449.507812 L 302.140625 449.507812 L 302.140625 440.398438 L 278.394531 440.398438 L 278.394531 429.910156 " fill-opacity="1" fill-rule="nonzero"/><g clip-path="url(#733c012124)"><path fill="#f41414" d="M 336.871094 410.308594 C 341.375 410.308594 345.625 411.164062 349.496094 412.835938 L 350.652344 413.335938 L 350.652344 403.726562 L 350.121094 403.523438 C 346.042969 401.984375 341.371094 401.199219 336.21875 401.199219 C 319.121094 401.199219 310.445312 409.167969 310.445312 424.871094 C 310.445312 441.433594 318.980469 449.832031 335.796875 449.832031 C 341.5 449.832031 346.335938 448.980469 350.15625 447.304688 L 350.652344 447.082031 L 350.652344 426.46875 L 340.410156 426.46875 L 340.410156 440.128906 C 338.746094 440.523438 337.246094 440.726562 335.929688 440.726562 C 325.890625 440.726562 321.011719 435.539062 321.011719 424.871094 C 321.011719 415.074219 326.199219 410.308594 336.871094 410.308594 " fill-opacity="1" fill-rule="nonzero"/></g><path fill="#f41414" d="M 289.476562 184.097656 C 289.476562 240.597656 243.675781 286.386719 187.199219 286.386719 C 130.707031 286.386719 84.914062 240.597656 84.914062 184.097656 C 84.914062 127.617188 130.707031 81.8125 187.199219 81.8125 C 243.675781 81.8125 289.476562 127.617188 289.476562 184.097656 " fill-opacity="1" fill-rule="nonzero"/><g clip-path="url(#be585f7413)"><path fill="#f41414" d="M 339.105469 336.027344 L 35.292969 336.027344 L 35.292969 32.183594 L 339.105469 32.183594 Z M 3.230469 0.121094 L 3.230469 368.078125 L 371.167969 368.078125 L 371.167969 0.121094 L 3.230469 0.121094 " fill-opacity="1" fill-rule="nonzero"/></g><path fill="#fc3838" d="M 187.199219 286.386719 L 187.199219 81.8125 C 243.675781 81.8125 289.476562 127.617188 289.476562 184.097656 C 289.476562 240.597656 243.675781 286.386719 187.199219 286.386719 " fill-opacity="1" fill-rule="nonzero"/><g clip-path="url(#6808957100)"><path fill="#fc3838" d="M 371.167969 0.121094 L 371.167969 368.078125 L 187.199219 368.078125 L 187.199219 336.027344 L 339.105469 336.027344 L 339.105469 32.183594 L 187.199219 32.183594 L 187.199219 0.121094 L 371.167969 0.121094 " fill-opacity="1" fill-rule="nonzero"/></g></svg>