<svg xmlns="http://www.w3.org/2000/svg" xmlns:xlink="http://www.w3.org/1999/xlink" width="500" zoomAndPan="magnify" viewBox="0 0 375 449.999984" height="600" preserveAspectRatio="xMidYMid meet" version="1.0"><defs><clipPath id="ee10b7592c"><path d="M 218.039062 401 L 258.804688 401 L 258.804688 449.832031 L 218.039062 449.832031 Z M 218.039062 401 " clip-rule="nonzero"/></clipPath><clipPath id="c0f22c89d6"><path d="M 4.621094 0 L 371.371094 0 L 371.371094 369 L 4.621094 369 Z M 4.621094 0 " clip-rule="nonzero"/></clipPath><clipPath id="0979639b5c"><path d="M 191 0 L 371.371094 0 L 371.371094 369 L 191 369 Z M 191 0 " clip-rule="nonzero"/></clipPath></defs><path fill="#0db75a" d="M 144.269531 435.613281 L 130.476562 401.527344 L 118.46875 401.527344 L 138.597656 449.507812 L 148.925781 449.507812 L 169.960938 401.527344 L 158.023438 401.527344 L 144.269531 435.613281 " fill-opacity="1" fill-rule="nonzero"/><path fill="#0db75a" d="M 186.453125 429.910156 L 208.640625 429.910156 L 208.640625 420.574219 L 186.550781 420.574219 L 186.550781 410.574219 L 209.742188 410.574219 L 209.742188 401.527344 L 176.371094 401.527344 L 176.371094 449.507812 L 210.199219 449.507812 L 210.199219 440.398438 L 186.453125 440.398438 L 186.453125 429.910156 " fill-opacity="1" fill-rule="nonzero"/><g clip-path="url(#ee10b7592c)"><path fill="#0db75a" d="M 244.277344 401.199219 C 227.171875 401.199219 218.503906 409.167969 218.503906 424.871094 C 218.503906 441.433594 227.03125 449.832031 243.855469 449.832031 C 249.554688 449.832031 254.386719 448.980469 258.214844 447.304688 L 258.710938 447.082031 L 258.710938 426.46875 L 248.46875 426.46875 L 248.46875 440.128906 C 246.804688 440.523438 245.296875 440.726562 243.984375 440.726562 C 233.949219 440.726562 229.070312 435.539062 229.070312 424.871094 C 229.070312 415.074219 234.253906 410.308594 244.921875 410.308594 C 249.433594 410.308594 253.679688 411.164062 257.550781 412.835938 L 258.710938 413.335938 L 258.710938 403.726562 L 258.171875 403.523438 C 254.101562 401.984375 249.421875 401.199219 244.277344 401.199219 " fill-opacity="1" fill-rule="nonzero"/></g><g clip-path="url(#c0f22c89d6)"><path fill="#0db75a" d="M 340.496094 336.027344 L 36.683594 336.027344 L 36.683594 32.183594 L 340.496094 32.183594 Z M 4.621094 0.121094 L 4.621094 368.078125 L 372.558594 368.078125 L 372.558594 0.121094 L 4.621094 0.121094 " fill-opacity="1" fill-rule="nonzero"/></g><path fill="#0db75a" d="M 290.867188 184.097656 C 290.867188 239.660156 246.582031 284.878906 191.378906 286.347656 C 190.441406 286.371094 189.523438 286.386719 188.589844 286.386719 C 132.105469 286.386719 86.304688 240.597656 86.304688 184.097656 C 86.304688 127.617188 132.105469 81.8125 188.589844 81.8125 C 189.523438 81.8125 190.441406 81.828125 191.378906 81.851562 C 246.582031 83.320312 290.867188 128.550781 290.867188 184.097656 " fill-opacity="1" fill-rule="nonzero"/><path fill="#23c468" d="M 191.378906 286.347656 L 191.378906 81.851562 C 246.582031 83.320312 290.867188 128.550781 290.867188 184.097656 C 290.867188 239.660156 246.582031 284.878906 191.378906 286.347656 " fill-opacity="1" fill-rule="nonzero"/><g clip-path="url(#0979639b5c)"><path fill="#23c468" d="M 372.558594 0.121094 L 372.558594 368.078125 L 191.378906 368.078125 L 191.378906 336.027344 L 340.496094 336.027344 L 340.496094 32.183594 L 191.378906 32.183594 L 191.378906 0.121094 L 372.558594 0.121094 " fill-opacity="1" fill-rule="nonzero"/></g></svg>